<svg width="125px" height="30px" viewBox="0 0 83 20" version="1.1" xmlns="http://www.w3.org/2000/svg" xmlns:xlink="http://www.w3.org/1999/xlink" role="img" aria-labelledby="logo-title"><title id="logo-title">Trendyol Deutsch</title><g id="Symbols" stroke="none" stroke-width="1" fill="none" fill-rule="evenodd"><g id="Header" transform="translate(-42.000000, -16.000000)" fill="#fff" fill-rule="nonzero"><g id="Menü" transform="translate(15.000000, 13.000000)"><g id="trendyol-logo" transform="translate(27.000000, 3.553457)"><path d="M29.4470532,10.507234 L20.0659899,10.507234 C20.4964036,12.3143904 21.9245947,13.6797974 23.7831995,13.6797974 C24.8298875,13.6797974 25.8570112,13.2179686 26.5417604,12.4248277 L28.8112147,12.4750265 C27.8134374,14.4227395 25.9059219,15.6676694 23.6951604,15.6676694 C20.4670573,15.6676694 17.9334854,12.7962987 17.9334854,9.54341722 C17.9334854,6.19013814 20.4279287,3.43924451 23.744071,3.43924451 C26.9526099,3.43924451 29.5155281,6.1499791 29.5155281,9.42294013 C29.505746,9.77433165 29.4861817,10.1558424 29.4470532,10.507234 L29.4470532,10.507234 Z M23.7147246,5.42711655 C21.8756841,5.42711655 20.1735933,6.91300069 20.0562078,8.83059442 L27.3732415,8.83059442 C27.2558559,6.92304045 25.5635473,5.42711655 23.7147246,5.42711655 L23.7147246,5.42711655 Z" id="Shape"></path><path d="M38.9604535,15.2855312 L38.9604535,9.02392251 C38.9604535,7.07276941 38.3820594,5.4202622 36.1273027,5.4202622 C34.0392019,5.4202622 33.1372992,7.06281455 33.1372992,9.00401278 L33.1372992,15.2855312 L31.0099852,15.2855312 L31.0099852,3.75780012 L33.0000531,3.75780012 L33.0000531,4.98224824 L33.0392663,4.98224824 C33.8627426,3.87725847 35.0489407,3.43924451 36.3625816,3.43924451 C37.9801245,3.43924451 39.4996345,4.08631059 40.3819306,5.4999011 C40.9309148,6.37592902 41.0975707,7.43114447 41.0975707,8.45649533 L41.0975707,15.2855312 L38.9604535,15.2855312 L38.9604535,15.2855312 Z" id="Shape"></path><path d="M52.2076796,15.3793684 L52.2076796,13.739035 L52.1683518,13.739035 C51.2244841,15.0711846 49.720195,15.6676694 48.1372503,15.6676694 C44.725562,15.6676694 42.2184136,13.0928431 42.2184136,9.66305502 C42.2184136,6.21338414 44.6862342,3.54908502 48.1372503,3.54908502 C49.5727157,3.54908502 51.0966687,4.10580424 52.0012085,5.26894975 L52.0405364,5.26894975 L52.0405364,0 L54.1740705,0 L54.1740705,15.3793684 L52.2076796,15.3793684 L52.2076796,15.3793684 Z M48.2552338,5.52742653 C45.9938842,5.52742653 44.3519478,7.39641248 44.3519478,9.64317219 C44.3519478,11.8004592 46.0627079,13.6992694 48.2355699,13.6992694 C50.4575916,13.6992694 52.1978921,11.8700491 52.1978921,9.64317219 C52.2076796,7.33676399 50.5854071,5.52742653 48.2552338,5.52742653 L48.2552338,5.52742653 Z" id="Shape"></path><polygon id="Shape" points="60.3087009 19.106914 58.1308974 19.106914 59.7666698 15.0505594 55.2949134 3.82138279 57.559829 3.82138279 60.8604111 12.7156822 64.2384262 3.82138279 66.5033418 3.82138279"></polygon><path d="M72.6679774,15.6676694 C69.3045522,15.6676694 66.5033418,12.9190325 66.5033418,9.47822057 C66.5033418,6.05747167 69.3735961,3.43924451 72.6679774,3.43924451 C76.0116757,3.43924451 78.832613,6.07753472 78.832613,9.51834665 C78.832613,12.8387803 76.1300367,15.6676694 72.6679774,15.6676694 L72.6679774,15.6676694 Z M72.6679774,5.43551733 C70.4388451,5.43551733 68.6437032,7.28131732 68.6437032,9.54844122 C68.6437032,11.8155651 70.4388451,13.6814282 72.6679774,13.6814282 C74.9168364,13.6814282 76.6922515,11.7955021 76.6922515,9.52837818 C76.6823881,7.26125428 74.8872462,5.43551733 72.6679774,5.43551733 L72.6679774,5.43551733 Z" id="Shape"></path><polygon id="Shape" points="80.3270701 15.2855312 80.3270701 0 82.5687558 0 82.5687558 15.2855312"></polygon><path d="M2.08641741,12.8751586 C2.17375581,13.2421701 2.29020701,13.5397469 2.42606675,13.7678892 C2.56192649,13.9960315 2.73660329,14.194416 2.9403929,14.3828814 C3.60998732,14.9780351 4.45425855,15.2855312 5.45379805,15.2855312 C6.44363329,15.2855312 7.37524292,15.0375505 8.21951415,14.5614275 L8.21951415,12.498228 C7.34613012,13.0239471 6.51156316,13.2917662 5.72551753,13.2917662 C4.65804816,13.2917662 4.10490494,12.6271779 4.10490494,11.3079205 L4.10490494,5.68371795 L7.6469624,5.68371795 L7.6469624,3.68995301 L4.11460921,3.68995301 L4.11460921,0 L2.0281918,0 L2.0281918,3.68003379 L0,3.68003379 L0,5.67379872 L1.9408534,5.67379872 L1.9408534,10.7722822 C1.9408534,11.803882 1.98937474,12.5081472 2.08641741,12.8751586 L2.08641741,12.8751586 Z" id="Shape"></path><path d="M14.9878694,5.52452513 C15.6458233,5.52452513 16.3725187,5.88675698 17.1483151,6.61122067 L18.3070997,4.69237089 C17.3643597,3.83084651 16.2252156,3.43924451 15.5574414,3.43924451 L15.4101383,3.43924451 C14.6441621,3.43924451 13.367535,3.43924451 12.326593,5.12313309 L12.2873122,5.19166344 L12.2971324,3.66441566 L10.0875855,3.66441566 L10.0875855,14.9033929 L12.2971324,14.9033929 L12.2971324,9.02936298 C12.2971324,8.08951819 12.562278,7.26715401 13.0925692,6.57206047 C13.6228605,5.87696693 14.261174,5.52452513 14.9878694,5.52452513 L14.9878694,5.52452513 Z" id="Shape"></path></g></g></g></g></svg>